<mxfile host="app.diagrams.net" modified="2023-12-15T07:49:59.383Z" agent="Mozilla/5.0 (Windows NT 10.0; Win64; x64) AppleWebKit/537.36 (KHTML, like Gecko) Chrome/120.0.0.0 Safari/537.36 Edg/120.0.0.0" etag="lwocuTacJB4wPqNcSQdS" version="22.1.8" type="github">
  <diagram name="Page-1" id="Smi57HGgO1XQKchknI7t">
    <mxGraphModel dx="326" dy="1145" grid="1" gridSize="10" guides="1" tooltips="1" connect="1" arrows="1" fold="1" page="1" pageScale="1" pageWidth="850" pageHeight="1100" math="0" shadow="0">
      <root>
        <mxCell id="0" />
        <mxCell id="1" parent="0" />
        <mxCell id="_P3GbaTxd4Ovkdbs7ZQb-1" value="" style="rounded=1;whiteSpace=wrap;html=1;fontSize=18;" vertex="1" parent="1">
          <mxGeometry x="2014" y="309" width="146" height="344" as="geometry" />
        </mxCell>
        <mxCell id="_P3GbaTxd4Ovkdbs7ZQb-2" value="" style="rounded=1;whiteSpace=wrap;html=1;fontSize=18;" vertex="1" parent="1">
          <mxGeometry x="2287" y="309" width="139" height="339" as="geometry" />
        </mxCell>
        <mxCell id="_P3GbaTxd4Ovkdbs7ZQb-3" value="" style="rounded=1;whiteSpace=wrap;html=1;fontSize=18;" vertex="1" parent="1">
          <mxGeometry x="1705" y="310" width="177" height="337" as="geometry" />
        </mxCell>
        <mxCell id="_P3GbaTxd4Ovkdbs7ZQb-4" value="" style="aspect=fixed;html=1;points=[];align=center;image;fontSize=12;image=img/lib/azure2/other/Internet_Analyzer_Profiles.svg;" vertex="1" parent="1">
          <mxGeometry x="2322" y="334.40999999999997" width="68" height="64" as="geometry" />
        </mxCell>
        <mxCell id="_P3GbaTxd4Ovkdbs7ZQb-5" value="" style="shadow=0;dashed=0;html=1;strokeColor=none;fillColor=#4495D1;labelPosition=center;verticalLabelPosition=bottom;verticalAlign=top;align=center;outlineConnect=0;shape=mxgraph.veeam.checked_doc;fontSize=18;" vertex="1" parent="1">
          <mxGeometry x="1766.6" y="339.71999999999997" width="50.8" height="61.6" as="geometry" />
        </mxCell>
        <mxCell id="_P3GbaTxd4Ovkdbs7ZQb-6" value="Engineering hub doc" style="text;html=1;strokeColor=none;fillColor=none;align=center;verticalAlign=middle;whiteSpace=wrap;rounded=0;fontSize=18;" vertex="1" parent="1">
          <mxGeometry x="1714" y="409.69000000000005" width="156" height="33.39" as="geometry" />
        </mxCell>
        <mxCell id="_P3GbaTxd4Ovkdbs7ZQb-7" value="" style="aspect=fixed;perimeter=ellipsePerimeter;html=1;align=center;shadow=0;dashed=0;spacingTop=3;image;image=img/lib/active_directory/users.svg;fontSize=18;" vertex="1" parent="1">
          <mxGeometry x="2564" y="338.72" width="33" height="50" as="geometry" />
        </mxCell>
        <mxCell id="_P3GbaTxd4Ovkdbs7ZQb-8" value="" style="shadow=0;dashed=0;html=1;strokeColor=none;fillColor=#4495D1;labelPosition=center;verticalLabelPosition=bottom;verticalAlign=top;align=center;outlineConnect=0;shape=mxgraph.veeam.company_owner;fontSize=18;" vertex="1" parent="1">
          <mxGeometry x="1773" y="531.8100000000001" width="44.4" height="48.8" as="geometry" />
        </mxCell>
        <mxCell id="_P3GbaTxd4Ovkdbs7ZQb-9" value="IC3 service owners" style="text;html=1;strokeColor=none;fillColor=none;align=center;verticalAlign=middle;whiteSpace=wrap;rounded=0;fontSize=18;" vertex="1" parent="1">
          <mxGeometry x="2504" y="394.38999999999993" width="183" height="30" as="geometry" />
        </mxCell>
        <mxCell id="_P3GbaTxd4Ovkdbs7ZQb-10" value="" style="endArrow=classic;html=1;rounded=0;fontSize=18;entryX=0.5;entryY=1;entryDx=0;entryDy=0;" edge="1" parent="1" target="_P3GbaTxd4Ovkdbs7ZQb-6">
          <mxGeometry width="50" height="50" relative="1" as="geometry">
            <mxPoint x="1792" y="533" as="sourcePoint" />
            <mxPoint x="1902" y="489.71999999999997" as="targetPoint" />
          </mxGeometry>
        </mxCell>
        <mxCell id="_P3GbaTxd4Ovkdbs7ZQb-11" value="R9 package owners" style="text;html=1;strokeColor=none;fillColor=none;align=center;verticalAlign=middle;whiteSpace=wrap;rounded=0;fontSize=18;" vertex="1" parent="1">
          <mxGeometry x="1709.5" y="596" width="168" height="30" as="geometry" />
        </mxCell>
        <mxCell id="_P3GbaTxd4Ovkdbs7ZQb-12" value="&lt;font style=&quot;font-size: 12px;&quot;&gt;Update&amp;nbsp;&lt;/font&gt;" style="text;html=1;strokeColor=none;fillColor=none;align=center;verticalAlign=middle;whiteSpace=wrap;rounded=0;fontSize=18;" vertex="1" parent="1">
          <mxGeometry x="1728" y="469.88999999999993" width="181" height="30" as="geometry" />
        </mxCell>
        <mxCell id="_P3GbaTxd4Ovkdbs7ZQb-13" value="" style="endArrow=classic;html=1;rounded=0;fontSize=18;exitX=1.015;exitY=0.511;exitDx=0;exitDy=0;exitPerimeter=0;" edge="1" parent="1" source="_P3GbaTxd4Ovkdbs7ZQb-4">
          <mxGeometry width="50" height="50" relative="1" as="geometry">
            <mxPoint x="2432" y="372" as="sourcePoint" />
            <mxPoint x="2540" y="367" as="targetPoint" />
          </mxGeometry>
        </mxCell>
        <mxCell id="_P3GbaTxd4Ovkdbs7ZQb-14" value="" style="sketch=0;html=1;dashed=0;whitespace=wrap;fillColor=#2875E2;strokeColor=#ffffff;points=[[0.005,0.63,0],[0.1,0.2,0],[0.9,0.2,0],[0.5,0,0],[0.995,0.63,0],[0.72,0.99,0],[0.5,1,0],[0.28,0.99,0]];shape=mxgraph.kubernetes.icon;prIcon=cronjob;fontSize=18;" vertex="1" parent="1">
          <mxGeometry x="2067" y="339.71999999999997" width="50" height="48" as="geometry" />
        </mxCell>
        <mxCell id="_P3GbaTxd4Ovkdbs7ZQb-15" value="" style="endArrow=classic;html=1;rounded=0;fontSize=18;" edge="1" parent="1">
          <mxGeometry width="50" height="50" relative="1" as="geometry">
            <mxPoint x="2050.6" y="363.67999999999995" as="sourcePoint" />
            <mxPoint x="1856" y="363.28999999999996" as="targetPoint" />
          </mxGeometry>
        </mxCell>
        <mxCell id="_P3GbaTxd4Ovkdbs7ZQb-16" value="R9 package analyzer cronjob" style="text;html=1;strokeColor=none;fillColor=none;align=center;verticalAlign=middle;whiteSpace=wrap;rounded=0;fontSize=18;" vertex="1" parent="1">
          <mxGeometry x="2019.5" y="403.51000000000005" width="137" height="30" as="geometry" />
        </mxCell>
        <mxCell id="_P3GbaTxd4Ovkdbs7ZQb-17" value="read&amp;nbsp;" style="text;html=1;strokeColor=none;fillColor=none;align=center;verticalAlign=middle;whiteSpace=wrap;rounded=0;fontSize=18;" vertex="1" parent="1">
          <mxGeometry x="1868" y="334.39" width="180" height="30" as="geometry" />
        </mxCell>
        <mxCell id="_P3GbaTxd4Ovkdbs7ZQb-18" value="" style="endArrow=classic;html=1;rounded=0;fontSize=18;" edge="1" parent="1">
          <mxGeometry width="50" height="50" relative="1" as="geometry">
            <mxPoint x="2136" y="361.33" as="sourcePoint" />
            <mxPoint x="2303" y="361" as="targetPoint" />
          </mxGeometry>
        </mxCell>
        <mxCell id="_P3GbaTxd4Ovkdbs7ZQb-19" value="invoke API" style="text;html=1;strokeColor=none;fillColor=none;align=center;verticalAlign=middle;whiteSpace=wrap;rounded=0;fontSize=18;" vertex="1" parent="1">
          <mxGeometry x="2067" y="334.39" width="310" height="30" as="geometry" />
        </mxCell>
        <mxCell id="_P3GbaTxd4Ovkdbs7ZQb-20" value="Create S360" style="text;html=1;strokeColor=none;fillColor=none;align=center;verticalAlign=middle;whiteSpace=wrap;rounded=0;fontSize=18;" vertex="1" parent="1">
          <mxGeometry x="2418" y="334.40999999999997" width="140" height="30" as="geometry" />
        </mxCell>
        <mxCell id="_P3GbaTxd4Ovkdbs7ZQb-21" value="" style="aspect=fixed;html=1;points=[];align=center;image;fontSize=12;image=img/lib/azure2/general/Dashboard.svg;" vertex="1" parent="1">
          <mxGeometry x="2325.5" y="539.08" width="68" height="48" as="geometry" />
        </mxCell>
        <mxCell id="_P3GbaTxd4Ovkdbs7ZQb-22" value="" style="endArrow=classic;html=1;rounded=0;fontSize=18;startArrow=none;exitX=0.469;exitY=1.285;exitDx=0;exitDy=0;exitPerimeter=0;" edge="1" parent="1" source="_P3GbaTxd4Ovkdbs7ZQb-24">
          <mxGeometry width="50" height="50" relative="1" as="geometry">
            <mxPoint x="2361" y="467.69" as="sourcePoint" />
            <mxPoint x="2361" y="529.69" as="targetPoint" />
          </mxGeometry>
        </mxCell>
        <mxCell id="_P3GbaTxd4Ovkdbs7ZQb-23" value="PE dashboard" style="text;html=1;strokeColor=none;fillColor=none;align=center;verticalAlign=middle;whiteSpace=wrap;rounded=0;fontSize=18;" vertex="1" parent="1">
          <mxGeometry x="2291" y="616" width="145" height="30" as="geometry" />
        </mxCell>
        <mxCell id="_P3GbaTxd4Ovkdbs7ZQb-24" value="&lt;font style=&quot;font-size: 18px;&quot;&gt;PE service&lt;/font&gt;" style="text;html=1;strokeColor=none;fillColor=none;align=center;verticalAlign=middle;whiteSpace=wrap;rounded=0;" vertex="1" parent="1">
          <mxGeometry x="2287" y="403.51" width="156" height="30.39" as="geometry" />
        </mxCell>
        <mxCell id="_P3GbaTxd4Ovkdbs7ZQb-25" value="R9 team" style="text;html=1;strokeColor=none;fillColor=none;align=center;verticalAlign=middle;whiteSpace=wrap;rounded=0;fontSize=18;" vertex="1" parent="1">
          <mxGeometry x="1728" y="271" width="124" height="30" as="geometry" />
        </mxCell>
        <mxCell id="_P3GbaTxd4Ovkdbs7ZQb-26" value="PE team" style="text;html=1;strokeColor=none;fillColor=none;align=center;verticalAlign=middle;whiteSpace=wrap;rounded=0;fontSize=18;" vertex="1" parent="1">
          <mxGeometry x="2301" y="271" width="124" height="30" as="geometry" />
        </mxCell>
        <mxCell id="_P3GbaTxd4Ovkdbs7ZQb-27" value="IC3 ESP team" style="text;html=1;strokeColor=none;fillColor=none;align=center;verticalAlign=middle;whiteSpace=wrap;rounded=0;fontSize=18;" vertex="1" parent="1">
          <mxGeometry x="2014" y="271" width="156" height="30" as="geometry" />
        </mxCell>
        <mxCell id="_P3GbaTxd4Ovkdbs7ZQb-28" value="&lt;font style=&quot;font-size: 18px;&quot;&gt;Notification&lt;/font&gt;" style="text;html=1;strokeColor=none;fillColor=none;align=center;verticalAlign=middle;whiteSpace=wrap;rounded=0;fontSize=12;" vertex="1" parent="1">
          <mxGeometry x="2149" y="716.39" width="60" height="30" as="geometry" />
        </mxCell>
        <mxCell id="_P3GbaTxd4Ovkdbs7ZQb-29" value="" style="shape=cylinder3;whiteSpace=wrap;html=1;boundedLbl=1;backgroundOutline=1;size=15;fontSize=18;" vertex="1" parent="1">
          <mxGeometry x="2062" y="531.81" width="60" height="80" as="geometry" />
        </mxCell>
        <mxCell id="_P3GbaTxd4Ovkdbs7ZQb-30" value="Storage" style="text;html=1;strokeColor=none;fillColor=none;align=center;verticalAlign=middle;whiteSpace=wrap;rounded=0;fontSize=18;" vertex="1" parent="1">
          <mxGeometry x="2060.5" y="616" width="60" height="30" as="geometry" />
        </mxCell>
        <mxCell id="_P3GbaTxd4Ovkdbs7ZQb-31" value="&lt;font style=&quot;font-size: 15px;&quot;&gt;metadata&lt;/font&gt;" style="text;html=1;strokeColor=none;fillColor=none;align=center;verticalAlign=middle;whiteSpace=wrap;rounded=0;fontSize=18;" vertex="1" parent="1">
          <mxGeometry x="2026" y="479" width="60" height="30" as="geometry" />
        </mxCell>
        <mxCell id="_P3GbaTxd4Ovkdbs7ZQb-32" value="" style="endArrow=classic;startArrow=classic;html=1;rounded=0;fontSize=18;exitX=0.5;exitY=0;exitDx=0;exitDy=0;exitPerimeter=0;" edge="1" parent="1" source="_P3GbaTxd4Ovkdbs7ZQb-29">
          <mxGeometry width="50" height="50" relative="1" as="geometry">
            <mxPoint x="2059" y="510" as="sourcePoint" />
            <mxPoint x="2092" y="446" as="targetPoint" />
          </mxGeometry>
        </mxCell>
      </root>
    </mxGraphModel>
  </diagram>
</mxfile>
